<svg width="32" height="32" viewBox="0 0 32 32" xmlns="http://www.w3.org/2000/svg">
  <defs>
    <!-- Islamic green gradient -->
    <linearGradient id="islamicGreen" x1="0%" y1="0%" x2="100%" y2="100%">
      <stop offset="0%" style="stop-color:#15803d;stop-opacity:1" />
      <stop offset="100%" style="stop-color:#22c55e;stop-opacity:1" />
    </linearGradient>
    <!-- Gold accent -->
    <linearGradient id="gold" x1="0%" y1="0%" x2="100%" y2="100%">
      <stop offset="0%" style="stop-color:#eab308;stop-opacity:1" />
      <stop offset="100%" style="stop-color:#facc15;stop-opacity:1" />
    </linearGradient>
  </defs>
  
  <!-- Background circle -->
  <circle cx="16" cy="16" r="15" fill="url(#islamicGreen)" stroke="#083344" stroke-width="1"/>
  
  <!-- Crescent moon -->
  <path d="M12,4 A8,8 0 0,0 12,20 A6,6 0 0,1 12,4 Z" fill="url(#gold)"/>
  
  <!-- Small calendar grid element -->
  <rect x="20" y="20" width="10" height="10" fill="none" stroke="url(#gold)" stroke-width="1" rx="1"/>
  
  <!-- Calendar grid lines -->
  <line x1="22" y1="22" x2="28" y2="22" stroke="url(#gold)" stroke-width="0.5"/>
  <line x1="22" y1="24" x2="28" y2="24" stroke="url(#gold)" stroke-width="0.5"/>
  <line x1="22" y1="26" x2="28" y2="26" stroke="url(#gold)" stroke-width="0.5"/>
  <line x1="22" y1="28" x2="28" y2="28" stroke="url(#gold)" stroke-width="0.5"/>
  
  <line x1="24" y1="20" x2="24" y2="30" stroke="url(#gold)" stroke-width="0.5"/>
  <line x1="26" y1="20" x2="26" y2="30" stroke="url(#gold)" stroke-width="0.5"/>
  
  <!-- Small date indicator -->
  <rect x="23" y="21" width="2" height="2" fill="url(#gold)"/>
  
  <!-- Subtle Islamic geometric pattern in corner -->
  <path d="M2,2 L6,2 L6,6 L2,6 Z M3,3 L5,3 L5,5 L3,5 Z" fill="url(#gold)" opacity="0.3"/>
</svg>